<!DOCTYPE svg PUBLIC "-//W3C//DTD SVG 1.1//EN" "http://www.w3.org/Graphics/SVG/1.1/DTD/svg11.dtd">
<!-- Uploaded to: SVG Repo, www.svgrepo.com, Transformed by: SVG Repo Mixer Tools -->
<svg fill="#000000" width="256px" height="256px" viewBox="-2.4 -2.4 28.80 28.80" id="discussion" data-name="Flat Line" xmlns="http://www.w3.org/2000/svg" class="icon flat-line">
<g id="SVGRepo_bgCarrier" stroke-width="0" transform="translate(0,0), scale(1)"/>
<g id="SVGRepo_tracerCarrier" stroke-linecap="round" stroke-linejoin="round" stroke="#CCCCCC" stroke-width="0.43200000000000005"/>
<g id="SVGRepo_iconCarrier">
<path id="secondary" d="M6,13a2,2,0,1,0,2,2A2,2,0,0,0,6,13Zm3,7a3,3,0,0,0-3-3H6a3,3,0,0,0-3,3v1H9ZM14,8H4A1,1,0,0,1,3,7V4A1,1,0,0,1,4,3H14a1,1,0,0,1,1,1V7A1,1,0,0,1,14,8Z" style="fill: #18B7BE; stroke-width: 2;"/>
<path id="primary" d="M6,13a2,2,0,1,0,2,2A2,2,0,0,0,6,13Zm3,7a3,3,0,0,0-3-3H6a3,3,0,0,0-3,3v1H9Z" style="fill: none; stroke: #000000; stroke-linecap: round; stroke-linejoin: round; stroke-width: 2;"/>
<path id="primary-2" data-name="primary" d="M15,6h5a1,1,0,0,1,1,1v3a1,1,0,0,1-1,1H16l-4,2V11a1,1,0,0,1-1-1V8" style="fill: none; stroke: #000000; stroke-linecap: round; stroke-linejoin: round; stroke-width: 2;"/>
<rect id="primary-3" data-name="primary" x="6.5" y="-0.5" width="5" height="12" rx="1" transform="translate(14.5 -3.5) rotate(90)" style="fill: none; stroke: #000000; stroke-linecap: round; stroke-linejoin: round; stroke-width: 2;"/>
</g>
</svg>